<?xml version="1.0" encoding="UTF-8"?>
<svg version="1.1" xmlns="http://www.w3.org/2000/svg" width="512" height="512">
    <path
        d="M0 0 C168.96 0 337.92 0 512 0 C512 168.96 512 337.92 512 512 C343.04 512 174.08 512 0 512 C0 343.04 0 174.08 0 0 Z "
        fill="#000000" transform="translate(0,0)" />
    <path
        d="M0 0 C13.2 0 26.4 0 40 0 C46.06111699 13.50971859 52.06087634 27.01781315 57.75 40.6875 C63.85564205 55.3567082 70.10710707 69.96196589 76.375 84.5625 C78.4690668 89.44127033 80.56290681 94.32013789 82.65625 99.19921875 C82.91907902 99.81178087 83.18190804 100.42434299 83.45270157 101.05546761 C89.77107102 115.78323477 96.04761821 130.52876387 102.32174683 145.27542114 C108.30149206 159.32927571 114.29858888 173.37539587 120.32507324 187.40927124 C126.63659534 202.10816418 132.90807218 216.823328 139.125 231.5625 C139.47787079 232.3975708 139.83074158 233.2326416 140.19430542 234.09301758 C141.17575045 236.41666785 142.1547314 238.74133837 143.1328125 241.06640625 C143.42556564 241.75891983 143.71831879 242.45143341 144.01994324 243.16493225 C146 247.88497298 146 247.88497298 146 249 C132.8 249 119.6 249 106 249 C101.80066691 240.00142909 97.63972068 231.03828099 93.72265625 221.921875 C93.26644394 220.86260803 92.81023163 219.80334106 92.3401947 218.7119751 C91.39211826 216.50790797 90.44530828 214.30329565 89.49975586 212.09814453 C88.04649322 208.71271157 86.58486394 205.33096526 85.12304688 201.94921875 C84.19740588 199.79449019 83.27225707 197.63955011 82.34765625 195.484375 C81.91026627 194.47509949 81.47287628 193.46582397 81.02223206 192.42596436 C80.62439011 191.49358948 80.22654816 190.5612146 79.81665039 189.60058594 C79.28872643 188.37272369 79.28872643 188.37272369 78.75013733 187.12005615 C78 185 78 185 78 182 C40.71 182 3.42 182 -35 182 C-35.99 184.97 -36.98 187.94 -38 191 C-38.63622592 192.62369059 -39.29421838 194.23933092 -39.98950195 195.83862305 C-40.3503035 196.67366867 -40.71110504 197.50871429 -41.08283997 198.36906433 C-41.46413559 199.24114029 -41.84543121 200.11321625 -42.23828125 201.01171875 C-42.8431562 202.40775078 -42.8431562 202.40775078 -43.46025085 203.83198547 C-44.74079433 206.78537516 -46.026495 209.73648496 -47.3125 212.6875 C-48.16376591 214.64763256 -49.01468023 216.60791786 -49.86523438 218.56835938 C-51.07566374 221.3581951 -52.28650093 224.14784051 -53.50032043 226.936203 C-56.69574624 234.27889005 -59.84536044 241.63917435 -63 249 C-76.2 249 -89.4 249 -103 249 C-99.62495385 238.87486155 -99.62495385 238.87486155 -97.92895508 234.90991211 C-97.54527267 234.00813232 -97.16159027 233.10635254 -96.76628113 232.17724609 C-96.14913994 230.74179443 -96.14913994 230.74179443 -95.51953125 229.27734375 C-95.07825394 228.24311279 -94.63697662 227.20888184 -94.18232727 226.14331055 C-92.72913947 222.73990003 -91.27086961 219.33869294 -89.8125 215.9375 C-88.79056472 213.54707954 -87.76892262 211.15653373 -86.74755859 208.76586914 C-84.05365666 202.46236902 -81.35455846 196.1611033 -78.65423584 189.86035156 C-77.00641337 186.01534638 -75.35977056 182.16983677 -73.71337891 178.32421875 C-68.1323307 165.28861192 -62.55033098 152.25340793 -56.95542908 139.22373962 C-54.7431295 134.07069389 -52.53676057 128.91526676 -50.34277344 123.75439453 C-49.92470428 122.77289932 -49.50663513 121.79140411 -49.07589722 120.78016663 C-48.28900781 118.93208811 -47.50401665 117.08319981 -46.72122192 115.23338318 C-46.37606537 114.42361526 -46.03090881 113.61384735 -45.67529297 112.77954102 C-45.3742868 112.07007828 -45.07328064 111.36061554 -44.76315308 110.62965393 C-44 109 -44 109 -43 108 C-40.04294679 107.91131701 -37.10934944 107.88479704 -34.15234375 107.90234375 C-32.82270348 107.90446617 -32.82270348 107.90446617 -31.46620178 107.90663147 C-28.62326746 107.91224785 -25.78041069 107.92480309 -22.9375 107.9375 C-21.01497509 107.94251289 -19.09244896 107.94707616 -17.16992188 107.95117188 C-12.44658451 107.96222259 -7.72330542 107.97949817 -3 108 C-3.88187572 110.21242505 -4.7637617 112.42484599 -5.64572144 114.63723755 C-6.30928362 116.30216214 -6.97231158 117.96729968 -7.63500977 119.63256836 C-11.02344577 128.11742528 -14.5204684 136.54970896 -18 145 C8.07 145 34.14 145 61 145 C57.679375 137.20375 54.35875 129.4075 50.9375 121.375 C49.31376139 117.56260681 47.69002279 113.75021362 46.06628418 109.93782043 C40.82706962 97.63670882 35.58697977 85.33597072 30.34599304 73.03561401 C26.52074691 64.05752915 22.69769036 55.07851329 18.8754425 46.09915161 C16.43575569 40.36867954 13.99294376 34.63956078 11.54585266 28.9122467 C10.20650303 25.77655991 8.86934523 22.63994201 7.53274536 19.50308228 C6.93637843 18.10498325 6.33897751 16.70732473 5.740448 15.31015015 C4.94147855 13.44488917 4.14639777 11.5779639 3.3515625 9.7109375 C2.91666504 8.69306152 2.48176758 7.67518555 2.03369141 6.62646484 C1 4 1 4 0 0 Z "
        fill="#FCFCFC" transform="translate(326,121)" />
    <path
        d="M0 0 C13.53 0 27.06 0 41 0 C52.00922521 24.43143129 62.45283452 49.09719325 72.92578125 73.76220703 C77.87984009 85.42828614 82.84615853 97.08914578 87.8125 108.75 C88.53465195 110.4459581 88.53465195 110.4459581 89.27139282 112.17617798 C95.84733316 127.61896455 102.44374546 143.05279279 109.0630188 158.47705078 C116.81353721 176.53899705 124.51423645 194.62209742 132.2109375 212.70703125 C132.68067993 213.81042847 133.15042236 214.91382568 133.63439941 216.05065918 C134.54216445 218.18412763 135.44901187 220.31798678 136.3548584 222.45227051 C138.21284685 226.82632547 140.07697968 231.1959634 142.00195312 235.54101562 C142.29003845 236.19547668 142.57812378 236.84993774 142.87493896 237.52423096 C143.5992032 239.1636297 144.33185339 240.7993172 145.06542969 242.43457031 C146 245 146 245 146 249 C132.8 249 119.6 249 106 249 C94.13516642 221.34669394 82.28081549 193.68923092 70.5 166 C62.69457854 147.65463602 54.85978217 129.32213911 47 111 C38.87214096 92.05172877 30.76613058 73.09431556 22.6875 54.125 C22.22480713 53.03880371 21.76211426 51.95260742 21.28540039 50.83349609 C18.18633477 43.55733234 15.09168205 36.27930389 12 29 C11.49986389 27.82304565 10.99972778 26.64609131 10.48443604 25.43347168 C8.95314312 21.82860412 7.42358761 18.22300421 5.89453125 14.6171875 C5.41948654 13.49917755 4.94444183 12.3811676 4.45500183 11.22927856 C4.01714859 10.19568207 3.57929535 9.16208557 3.12817383 8.09716797 C2.74059402 7.18353485 2.35301422 6.26990173 1.95368958 5.32858276 C1.23668568 3.57790524 0.59824463 1.79473389 0 0 Z "
        fill="#FCFCFC" transform="translate(40,121)" />
    <path
        d="M0 0 C3.05075084 -0.266487 5.89626179 -0.34757146 8.9453125 -0.29296875 C10.27283035 -0.28660149 10.27283035 -0.28660149 11.62716675 -0.28010559 C14.46008445 -0.26328259 17.29229652 -0.22562425 20.125 -0.1875 C22.04295849 -0.17245782 23.96092811 -0.15876861 25.87890625 -0.14648438 C30.58621031 -0.11336727 35.29298544 -0.06156055 40 0 C37.80203277 6.9193947 35.1747592 13.5473098 32.30859375 20.21484375 C31.85154556 21.28585831 31.39449738 22.35687286 30.92359924 23.46034241 C29.43161963 26.95418689 27.93460154 30.44584757 26.4375 33.9375 C25.38967196 36.38854347 24.34212265 38.83970428 23.29492188 41.29101562 C20.2016284 48.52949437 17.10130092 55.76494826 14 63 C13.1759087 64.92332472 12.35185006 66.84666342 11.52783203 68.77001953 C8.6371532 75.51650958 5.74562889 82.26263546 2.85131836 89.00756836 C-2.7943525 102.1674848 -8.40905908 115.34047556 -14.01699829 128.51651001 C-15.48608008 131.96730288 -16.95612023 135.41768577 -18.42651367 138.86791992 C-19.39243262 141.13459551 -20.3583344 143.40127842 -21.32421875 145.66796875 C-21.79868942 146.78141159 -22.2731601 147.89485443 -22.76200867 149.04203796 C-25.54354334 155.57222131 -28.31702288 162.10574812 -31.08340454 168.6423645 C-32.76195815 172.60587328 -34.44560185 176.56720608 -36.13037109 180.52807617 C-36.91353359 182.37276189 -37.69432703 184.21845533 -38.47265625 186.06518555 C-39.53439227 188.58380281 -40.60407177 191.09889526 -41.67578125 193.61328125 C-41.98610794 194.35524246 -42.29643463 195.09720367 -42.61616516 195.86164856 C-44.77198498 200.88599249 -44.77198498 200.88599249 -47 202 C-49.55428206 195.98983647 -52.09837184 189.97543339 -54.63549805 183.95800781 C-55.49937898 181.9124259 -56.36556872 179.8678174 -57.23413086 177.82421875 C-58.48382428 174.88275376 -59.72511032 171.93786174 -60.96484375 168.9921875 C-61.35341049 168.0825827 -61.74197723 167.17297791 -62.14231873 166.23580933 C-66.71596898 155.31332937 -66.71596898 155.31332937 -64.91796875 149.50390625 C-64.35654439 148.18345054 -63.77850237 146.86998491 -63.1875 145.5625 C-62.87195663 144.831521 -62.55641327 144.10054199 -62.23130798 143.34741211 C-61.16785998 140.89208589 -60.08366548 138.44646269 -59 136 C-58.22955675 134.22988149 -57.46080368 132.45902653 -56.69360352 130.6875 C-55.02438402 126.83597318 -53.34828411 122.98753629 -51.66845703 119.140625 C-47.50256772 109.57877679 -43.44369596 99.97121882 -39.36898804 90.37026978 C-36.95461357 84.6859098 -34.53205416 79.00504316 -32.109375 73.32421875 C-31.61817673 72.17241623 -31.12697845 71.02061371 -30.62089539 69.83390808 C-29.60629502 67.4549799 -28.59163031 65.07607917 -27.5769043 62.69720459 C-26.50061581 60.17392681 -25.4246336 57.65051872 -24.34887695 55.12701416 C-21.27359571 47.91323036 -18.19623386 40.70034429 -15.11366367 33.48967171 C-13.77187463 30.35092196 -12.43104979 27.21176947 -11.09274292 24.0715332 C-9.61026777 20.59463267 -8.12398813 17.11938318 -6.63671875 13.64453125 C-6.19511414 12.60657913 -5.75350952 11.56862701 -5.29852295 10.4992218 C-4.89152161 9.55048691 -4.48452026 8.60175201 -4.06518555 7.62426758 C-3.53637032 6.38632195 -3.53637032 6.38632195 -2.99687195 5.12336731 C-2 3 -2 3 0 0 Z "
        fill="#FBFBFB" transform="translate(249,121)" />
</svg>